<svg width="38" height="33" viewBox="0 0 38 33" fill="none" xmlns="http://www.w3.org/2000/svg">
<path fill-rule="evenodd" clip-rule="evenodd" d="M18.3739 6.16394V6.16777C18.3373 6.40692 18.3027 6.64416 18.268 6.88331L17.7466 10.3826L17.6177 11.3086C17.5965 11.4731 17.585 11.6453 17.5754 11.8156C17.5638 11.984 17.5542 12.1485 17.535 12.2997C17.4907 12.9922 17.5023 13.6848 17.5715 14.3698C17.6369 15.1159 17.8063 15.8468 18.0737 16.5413C18.3623 17.3334 18.826 18.047 19.4321 18.6344C20.0651 19.2294 20.8463 19.656 21.7102 19.876C22.4452 20.054 23.2091 20.119 23.9749 20.0693C24.5059 20.0367 25.0043 19.9927 25.4853 19.9487C26.2261 19.8837 26.9283 19.8206 27.6614 19.8052C28.7043 19.7899 29.7414 19.8531 30.765 19.9966C30.8035 20.0042 30.8439 19.9966 30.8785 19.9794C30.9131 19.9621 30.942 19.9315 30.9593 19.8971C30.9766 19.8626 30.9805 19.8225 30.9728 19.7861C30.9632 19.7498 30.942 19.7172 30.9112 19.6943C30.0511 19.0208 29.0756 18.4966 28.0251 18.1388C27.4055 17.9226 26.7706 17.7485 26.1222 17.6184L24.2923 17.274C23.8113 17.186 23.3476 17.0368 22.9147 16.8283C22.6088 16.6733 22.3471 16.4475 22.1566 16.1701C21.741 15.4699 21.5197 14.6701 21.5101 13.8455C21.4813 13.3481 21.4774 12.822 21.4813 12.2863L21.5852 10.5701C21.6544 9.315 21.6313 8.06186 21.512 6.82018C21.4062 5.55936 21.1792 4.31768 20.8328 3.10852C20.5346 2.03137 20.0844 1.00588 19.4956 0.06074C19.4744 0.03587 19.4456 0.01674 19.4129 0.00717C19.3802 -0.00239 19.3455 -0.00239 19.3109 0.00717C19.2782 0.01674 19.2474 0.03587 19.2224 0.06074C19.1993 0.08562 19.182 0.11814 19.1762 0.15067C18.9511 2.24948 18.6606 4.20671 18.3719 6.16968L18.3739 6.16394ZM37.8398 32.1436C36.1332 30.9058 34.5824 29.6832 33.0258 28.4569C32.8353 28.3076 32.6448 28.1565 32.4543 28.0073L29.6817 25.8185L28.9448 25.2465C28.812 25.147 28.6677 25.0513 28.5273 24.9576C28.3868 24.8657 28.2502 24.7739 28.129 24.6821C27.5517 24.2994 26.9457 23.9665 26.3165 23.6834C25.6354 23.3677 24.9196 23.1496 24.1846 23.0348C23.3553 22.8894 22.5049 22.9315 21.6929 23.161C20.8617 23.4079 20.1017 23.8689 19.4802 24.5022C18.9588 25.0456 18.522 25.6693 18.1834 26.3542C17.9467 26.8268 17.737 27.2764 17.533 27.7126C17.2213 28.3822 16.9231 29.0174 16.571 29.6545C16.065 30.5576 15.4916 31.4185 14.8566 32.2278C14.8316 32.2565 14.8162 32.2948 14.8143 32.335C14.8124 32.3751 14.8239 32.4134 14.8451 32.4459C14.8663 32.4785 14.899 32.5014 14.9355 32.5129C14.9721 32.5244 15.0106 32.5206 15.0452 32.5052C16.0573 32.0996 17.0001 31.5238 17.8351 30.7986C18.3315 30.3739 18.7991 29.9147 19.2359 29.423L20.448 28.0226C20.7636 27.6533 21.1253 27.33 21.5217 27.0602C21.8084 26.8727 22.1335 26.7617 22.4702 26.735C23.2841 26.7273 24.0884 26.9339 24.808 27.3357C25.2544 27.5576 25.7104 27.8159 26.1741 28.0876L27.6095 29.0308C28.6619 29.7158 29.7606 30.3184 30.8958 30.835C32.0406 31.3726 33.2317 31.7954 34.4515 32.0977C35.5348 32.3771 36.6469 32.4995 37.7609 32.4651C37.7937 32.4593 37.8244 32.444 37.8495 32.4211C37.8745 32.3981 37.8918 32.3675 37.8995 32.3331C37.9072 32.2986 37.9072 32.2642 37.8976 32.2297C37.8879 32.1972 37.8687 32.1666 37.8418 32.1456L37.8398 32.1436ZM5.8923 30.0008C4.0375 30.7317 2.18845 31.4606 0.248979 32.3178C0.216269 32.3292 0.181629 32.3311 0.146999 32.3235C0.112369 32.3158 0.081579 32.2986 0.056569 32.2737C0.031559 32.2489 0.014239 32.2183 0.00461898 32.1857C-0.00308102 32.1532 -0.0011513 32.1188 0.0103887 32.0882C0.539509 31.1048 1.20525 30.2017 1.99412 29.4039C2.87151 28.499 3.8393 27.6801 4.8841 26.9588C5.9058 26.2337 6.9852 25.5851 8.1127 25.0188L9.6597 24.2497C10.1292 23.9837 10.5852 23.7178 11.0027 23.4442C11.7165 23.0233 12.3014 22.4302 12.7036 21.7204C12.8498 21.4162 12.9152 21.0775 12.896 20.7351C12.8614 20.2549 12.7594 19.7804 12.5939 19.3193L11.9763 17.5649C11.7646 16.9392 11.5972 16.3021 11.476 15.6593C11.2605 14.5707 11.2297 13.4648 11.3837 12.3838C11.3875 12.3456 11.4048 12.3111 11.4318 12.2844C11.4587 12.2576 11.4953 12.2423 11.5357 12.2403C11.5741 12.2384 11.6145 12.248 11.6473 12.269C11.68 12.2901 11.7069 12.3226 11.7204 12.359C12.109 13.3156 12.5747 14.2454 13.1096 15.1389C13.4905 15.7664 13.8965 16.3423 14.3256 16.9507C14.6046 17.3448 14.8913 17.7543 15.1876 18.1962C15.6166 18.8333 15.9437 19.5278 16.1554 20.2529C16.3978 21.1082 16.419 21.9997 16.217 22.8435C16.0092 23.6623 15.6205 24.42 15.076 25.0666C14.6065 25.6444 14.0543 26.1572 13.4367 26.5876C12.8748 26.9894 12.2784 27.3472 11.653 27.6552C11.5106 27.7145 11.3625 27.7872 11.2105 27.8618C11.0566 27.9384 10.9007 28.0149 10.7468 28.078L9.8771 28.4301L6.5696 29.7311C6.3426 29.821 6.1155 29.909 5.8904 29.9989L5.8923 30.0008Z" fill="#F97316"/>
</svg>
